<svg id="Layer_1" data-name="Layer 1" xmlns="http://www.w3.org/2000/svg" xmlns:xlink="http://www.w3.org/1999/xlink" viewBox="0 0 1603.78 343.56"><defs><style>.cls-1{fill:none;}.cls-2{clip-path:url(#clip-path);}.cls-3{fill:#606060;}</style><clipPath id="clip-path" transform="translate(-158.11 -368.22)"><rect class="cls-1" width="1920" height="1080"/></clipPath></defs><title>Feevale</title><g class="cls-2"><path class="cls-3" d="M404.75,501.45C400.48,502,390,503,372.7,503c-4.65,0-9.8-.07-15.44-.26a302.76,302.76,0,0,1-52.05-6.18C328.79,457,365.9,430.75,408,428.35l8.25-.47-7.4-3.68c-12.44-6.18-57.31-24.87-120-24.95h-.42c-34.44,0-83.53,4.26-118.8,22.41-1.92,1.07-5.72,3.06-8.18,6.46h0l0,0,0,.06-.09.13-.07.12s0,0,0,0c-2.1,3.15-2.94,8.71-3,16.89,0,2.63.11,5.51.37,8.61,1.74,20.87,9.92,68.34,35,110.76,19.49,33,47.63,68.84,93.4,99.67l0,0,1.86,1.26,2.59-1.89c85.08-61.74,114.78-143.05,118.19-160.08l.74-3.54a36.76,36.76,0,0,1-5.48,1.24m-32.05,6c9.64,0,17.19-.33,22.78-.71A207.56,207.56,0,0,0,372.8,521h0c-4.81,3.48-9.86,7.42-15,11.86l-.65.57q-1.62,1.39-3.25,2.87l-1.1,1q-1.58,1.42-3.15,2.92l-1.16,1.12c-1.07,1-2.13,2.06-3.2,3.13-.22.23-.43.46-.66.68-2.34,2.38-4.69,4.86-7,7.45l-.51.56c-.93,1-1.85,2.12-2.77,3.2l-1.62,1.89c-.86,1-1.72,2.09-2.57,3.14-.59.73-1.17,1.47-1.75,2.22-.83,1.05-1.65,2.11-2.47,3.2-.6.79-1.19,1.61-1.78,2.42-.8,1.09-1.6,2.18-2.37,3.3-.62.86-1.21,1.76-1.81,2.65-1.3,1.93-2.59,3.91-3.86,5.92-.67,1.06-1.34,2.12-2,3.2s-1.29,2.21-1.93,3.32-1.26,2.18-1.87,3.3-1.24,2.27-1.85,3.43-1.21,2.33-1.8,3.51-1.17,2.31-1.73,3.5-1.2,2.57-1.79,3.86-1,2.27-1.53,3.43c-.74,1.72-1.45,3.49-2.16,5.26-.55,1.39-1.1,2.8-1.63,4.22-.69,1.86-1.37,3.72-2,5.63-.39,1.14-.74,2.29-1.11,3.44-.5,1.59-1,3.2-1.49,4.82-.36,1.24-.7,2.47-1,3.73-.45,1.63-.88,3.26-1.29,4.93-.31,1.25-.61,2.5-.9,3.78-.42,1.8-.8,3.64-1.17,5.49-.23,1.16-.48,2.31-.69,3.49-.05.22-.1.43-.14.66-.78-2.44-1.53-4.91-2.21-7.4-.09-.3-.16-.61-.24-.91q-.9-3.32-1.69-6.71c-.16-.72-.31-1.45-.47-2.17-.41-1.86-.8-3.74-1.15-5.62-.16-.86-.31-1.74-.46-2.61-.31-1.78-.59-3.57-.86-5.37-.13-.92-.26-1.84-.38-2.77q-.34-2.69-.61-5.42c-.09-.92-.19-1.84-.27-2.76-.17-1.93-.29-3.86-.4-5.81,0-.81-.1-1.62-.14-2.44q-.18-4-.18-8c0-.09,0-.19,0-.29,0-1.51,0-3,.07-4.51,0-.71,0-1.42,0-2.12,0-1.23.11-2.44.17-3.65.05-1,.08-2,.14-3,.08-1.18.18-2.34.28-3.51.08-1,.15-2,.24-3,.12-1.2.26-2.39.39-3.59.11-.94.2-1.9.33-2.85.15-1.23.34-2.46.52-3.69.13-.89.25-1.78.38-2.66.2-1.27.44-2.54.66-3.8.15-.82.29-1.64.44-2.46.26-1.31.54-2.62.82-3.93.16-.74.3-1.48.47-2.22.3-1.36.63-2.7,1-4,.17-.68.32-1.36.49-2,.36-1.37.74-2.73,1.13-4.09.17-.63.34-1.25.52-1.87.41-1.41.85-2.8,1.29-4.19.17-.55.34-1.11.52-1.66.47-1.42,1-2.83,1.46-4.23.18-.5.34-1,.52-1.51.53-1.44,1.08-2.87,1.63-4.29.18-.44.34-.89.52-1.33q.89-2.19,1.81-4.33c.16-.39.33-.79.5-1.18q1-2.19,2-4.35c.16-.34.31-.69.48-1,.69-1.45,1.41-2.9,2.14-4.33l.48-.93q1.13-2.17,2.3-4.29c.12-.2.23-.41.34-.62a306.39,306.39,0,0,0,54.25,6.56q8.52.27,15.58.26M171.6,425.53c34-17.57,82.68-21.92,116.75-21.89h.4c52.65,0,92.62,13.45,110.69,21.11-40.77,5.3-76.18,32.13-98.77,70.83-2.16-.49-4.36-1-6.57-1.56l-3.79-.9c-2.94-.74-5.91-1.53-8.9-2.32-.83-.23-1.66-.43-2.5-.66-30.81-8.39-58.26-18.62-78.58-28.69-1.21-.6-2.41-1.2-3.56-1.79l-1.21-.63c-9.74-5.1-17.56-10.11-22.89-14.68-4.44-3.76-7-7.24-7.82-9.87a6,6,0,0,1-.32-1.9,5.22,5.22,0,0,1,.07-.57,4.84,4.84,0,0,1,.09-.65,4.28,4.28,0,0,1,.28-.72h0l0-.1c1.62-2.22,4.79-4.06,6.57-5m25.6,137C172.66,521,164.51,474,162.85,453.64c-.25-3-.36-5.74-.36-8.25,0-2,0-3.81.18-5.46l.07.09c.25.39.55.77.83,1.15s.36.5.57.75.66.78,1,1.17.41.49.64.73c.37.4.78.8,1.18,1.19.25.25.47.49.72.73l.82.74c.44.4.85.79,1.31,1.19,17.06,14.58,55.14,31.68,101.66,44.93,2.09.59,4.16,1.19,6.29,1.77l.49.13q5.4,1.46,10.72,2.79l3.72.9c1.91.47,3.83.95,5.72,1.38-.37.68-.73,1.38-1.1,2.07-.24.45-.47.91-.72,1.36-.68,1.31-1.35,2.63-2,4-.26.51-.51,1-.76,1.54-.62,1.29-1.22,2.59-1.81,3.9-.26.57-.52,1.13-.77,1.7-.56,1.28-1.1,2.57-1.64,3.86-.26.63-.52,1.24-.77,1.87-.51,1.26-1,2.54-1.48,3.83l-.75,2c-.46,1.26-.89,2.52-1.33,3.79-.24.72-.49,1.43-.73,2.15-.4,1.24-.79,2.51-1.18,3.77-.23.75-.47,1.51-.69,2.27-.37,1.24-.7,2.5-1.05,3.74-.21.8-.44,1.59-.64,2.39-.32,1.25-.62,2.49-.92,3.75-.19.82-.4,1.65-.58,2.48-.28,1.24-.54,2.48-.8,3.74-.17.86-.35,1.72-.52,2.58-.23,1.23-.45,2.47-.66,3.71-.16.91-.33,1.8-.47,2.71-.19,1.21-.36,2.44-.53,3.67-.13.94-.27,1.87-.39,2.81-.15,1.19-.28,2.4-.41,3.6-.11,1-.23,2-.32,3-.11,1.15-.19,2.31-.28,3.47s-.18,2.11-.24,3.18-.11,2.14-.16,3.21-.12,2.32-.16,3.5c0,.55,0,1.1,0,1.65,0,1.68-.08,3.36-.08,5.05,0,.53,0,1.06,0,1.59,0,2.28.06,4.57.15,6.83.05,1.2.15,2.4.22,3.6.1,1.6.19,3.2.32,4.79.12,1.32.27,2.63.4,3.94s.3,2.89.49,4.33.38,2.71.58,4.06.41,2.72.64,4.07.49,2.75.76,4.1.51,2.61.79,3.9.6,2.74.92,4.11.62,2.5.94,3.74.71,2.73,1.09,4.08.71,2.41,1.07,3.61.82,2.7,1.26,4c.08.26.15.52.24.78-42.28-29.62-68.61-63.47-87.17-94.9m94.51,95.6c.17-1,.34-2.08.52-3.11.24-1.31.47-2.61.73-3.9.36-1.84.76-3.65,1.17-5.45.27-1.17.52-2.35.81-3.51.46-1.91,1-3.78,1.48-5.64.28-1,.54-2,.83-3,.61-2.08,1.26-4.12,1.92-6.14.23-.73.46-1.47.7-2.18.91-2.67,1.85-5.29,2.85-7.87a.78.78,0,0,0,0-.14c2.09-5.37,4.37-10.54,6.79-15.48.18-.38.37-.74.56-1.11,1-2,2.05-4.05,3.12-6,.29-.55.6-1.08.9-1.62,1-1.77,2-3.52,3-5.23L318.2,586c1-1.62,2-3.22,3-4.79.38-.59.78-1.17,1.16-1.76q1.53-2.29,3.08-4.52l1.18-1.66q1.61-2.22,3.22-4.35c.38-.51.77-1,1.16-1.52q1.67-2.16,3.38-4.26l1.05-1.28q1.81-2.19,3.66-4.28l.84-1c1.35-1.52,2.72-3,4.07-4.46l.47-.5c23.61-25,48.25-38.93,59.68-44.41-6.38,22.53-36.61,94.76-112.43,150.93" transform="translate(-158.11 -368.22)"/><path class="cls-3" d="M1194.58,483.3V464.5h27.9V457h-27.9V439.56h30v-7.45h-38v58.64h39.44V483.3Zm-69.41,0h-10.06V439.56h12c19.12,0,23,14.4,23,21.88,0,14.48-11.48,21.86-24.92,21.86m2.5-51.19h-20.53v58.64h19.18c21,0,32.22-14.33,32.22-29.31,0-10.86-6-29.33-30.87-29.33M977.15,483.3h-10V439.56H979c19.13,0,23,14.4,23,21.88,0,14.48-11.46,21.86-24.91,21.86m2.48-51.19H959.12v58.64h19.17c21,0,32.25-14.33,32.25-29.31,0-10.86-6.08-29.33-30.91-29.33m-61.46,58.64h8V432.12h-8ZM860.82,447c0-3.65,2.65-8.95,11.43-8.95,4.57,0,8.49,2.07,10.46,5.13l6.48-5.89c-4.39-5.35-10.55-6.69-16.94-6.69-14.14,0-19.92,9.52-19.92,16.4,0,22.84,29,14.49,29,28,0,6.46-6.46,9.78-11.69,9.78a14.59,14.59,0,0,1-12.44-6.3l-6.57,5.64c4,5.54,11.18,8.12,18.76,8.12,11.29,0,20.43-6.8,20.43-18.14,0-21.11-29-12.27-29-27.08M796,458V439.08h10.47c6.33,0,12.62,1.48,12.62,9.43S812.82,458,806.49,458Zm31.58-9.45c0-7.38-3.85-16.4-18.86-16.4H788.05v58.64h8V464.91h8.91l14.92,25.84h9.95L813.12,464c8.89-1,14.48-8,14.48-15.49m-98.91,16h27.89V457H728.69V439.56h30v-7.45h-38v58.64h39.45V483.3H728.69Zm323.12-32.39-23.17,58.64h8.73L1055.29,443h.18l17.27,47.71H1082l-22.68-58.64ZM670.4,479.82h-.17l-17.29-47.71h-9.2l22.67,58.64h7.49L697,432.11h-8.71Zm-58.3,10.93h8V432.12h-8Zm-39.71-10.43h-.14l-32.39-48.21H529.4v58.64h8V442.56h.16l32.71,48.19h10.14V432.11h-8Zm-81.61-12.27c0,7.31-3.66,16.74-14.78,16.74s-14.78-9.43-14.78-16.74V432.11h-8V469.3c0,13.59,9.89,22.95,22.75,22.95s22.75-9.36,22.75-22.95V432.11h-8Z" transform="translate(-158.11 -368.22)"/><path class="cls-3" d="M878.48,517.64l-33.4,87h-.35l-32.83-87H778.49l53.09,132.79H855l54.77-132.79Zm180.72,0H1030V650.43h66.88A26.75,26.75,0,0,0,1123.54,624v-.57H1059.2Zm106,105.78v-27h57.61v-27h-57.61V544.66h61v-27h-90.22V650.43h66.88a26.73,26.73,0,0,0,26.7-26.44v-.57ZM941,517.64h23.43l53.08,132.79H984.12l-32.79-87h-.39l-33.37,87H886.24ZM453.25,650.43h29.24V598.67h55.34v-27H482.49v-27h59.85v-27H453.25Zm252-54h57.58v-27H705.24V544.66h61v-27H676V650.43h66.87A26.74,26.74,0,0,0,769.56,624v-.57H705.24Zm-111.87,0H651v-27H593.37V544.66h60.94v-27H564.1V650.43H631A26.73,26.73,0,0,0,657.7,624v-.57H593.37Z" transform="translate(-158.11 -368.22)"/><path class="cls-3" d="M1359.54,711.78a2.86,2.86,0,0,1-2.86-2.86V371.08a2.87,2.87,0,0,1,5.73,0V708.92a2.86,2.86,0,0,1-2.87,2.86" transform="translate(-158.11 -368.22)"/><path class="cls-3" d="M1505.22,659.15h4.69l20.21,44.66h-5.39l-5.19-11.72H1495.4l-5.26,11.72H1485Zm12.35,28.44L1507.5,665l-10.14,22.62Z" transform="translate(-158.11 -368.22)"/><polygon class="cls-3" points="1402.92 291.25 1407.61 291.25 1435.54 326.79 1435.54 291.25 1440.42 291.25 1440.42 335.59 1436.43 335.59 1407.8 299.23 1407.8 335.59 1402.92 335.59 1402.92 291.25"/><path class="cls-3" d="M1631.28,681.76v-.12c0-12.23,9.18-22.94,22.68-22.94s22.55,10.58,22.55,22.81v.13c0,12.22-9.19,22.93-22.68,22.93s-22.55-10.58-22.55-22.81m40,0v-.12c0-10.08-7.35-18.31-17.49-18.31s-17.36,8.11-17.36,18.18v.13c0,10.07,7.35,18.31,17.49,18.31s17.36-8.11,17.36-18.19" transform="translate(-158.11 -368.22)"/><path class="cls-3" d="M1706,697.35l3.1-3.68c4.63,4.25,9.06,6.28,15.21,6.28s9.88-3.17,9.88-7.54v-.13c0-4.12-2.22-6.4-11.53-8.43-10.2-2.21-14.89-5.51-14.89-12.79v-.13c0-6.91,6.15-12.1,14.57-12.1a23.15,23.15,0,0,1,15.59,5.45l-2.92,3.86a19.45,19.45,0,0,0-12.79-4.81c-5.83,0-9.44,3.1-9.44,7.16v.12c0,4.18,2.21,6.59,12,8.62,9.89,2.22,14.45,5.76,14.45,12.54v.13c0,7.6-6.34,12.54-15.14,12.54a25.57,25.57,0,0,1-18.12-7.09" transform="translate(-158.11 -368.22)"/><path class="cls-3" d="M1515.31,599.82l-1.65,0c-12.55-.24-24.85-3.19-32.92-7.89a2.61,2.61,0,0,1,2.63-4.51c14,8.19,45.4,11.89,67.8-2.45,16.88-10.8,25.08-27.15,25.08-50,0-34.77-26.81-52.08-51.9-56.68a67.82,67.82,0,0,0-35.43,2.75,2.61,2.61,0,0,1-3.47-3.32l31.3-83.24a2.6,2.6,0,0,1,2.44-1.69h79.49a2.61,2.61,0,1,1,0,5.21H1521l-28.74,76.45a75.16,75.16,0,0,1,33-1.3c14.38,2.64,27.65,9,37.38,17.85,12.3,11.22,18.8,26.42,18.8,44,0,24.74-9,42.51-27.49,54.36-13.36,8.55-28.11,10.47-38.67,10.47" transform="translate(-158.11 -368.22)"/><path class="cls-3" d="M1521.09,631.17a125.3,125.3,0,0,1-57.38-14.78,2.61,2.61,0,1,1,2.61-4.51c.37.21,37.59,21.38,76.78,11.41,31.83-8.1,66.19-41.23,66.19-80.65,0-36.85-13.92-63.18-41.36-78.27a100.68,100.68,0,0,0-41.84-11.79,2.61,2.61,0,0,1-2.41-3.49l10.9-30.15a2.6,2.6,0,0,1,2.45-1.72h53.1a2.61,2.61,0,1,1,0,5.21h-51.27l-9.09,25.14a105.63,105.63,0,0,1,40.49,12.13,80.82,80.82,0,0,1,30.45,28.48c9.15,14.77,13.79,33.09,13.79,54.46,0,25.36-12.47,44.51-22.93,56.12-13.08,14.5-30.27,25.28-47.19,29.59a94.37,94.37,0,0,1-23.29,2.82" transform="translate(-158.11 -368.22)"/><path class="cls-3" d="M1662.7,599.82l-1.66,0c-12.54-.24-24.85-3.19-32.91-7.89a2.61,2.61,0,0,1,2.63-4.51c14,8.19,45.4,11.89,67.79-2.45,16.88-10.8,25.09-27.15,25.09-50,0-34.77-26.81-52.08-51.9-56.68a67.82,67.82,0,0,0-35.43,2.75,2.6,2.6,0,0,1-2.83-.52,2.63,2.63,0,0,1-.64-2.8l31.3-83.24a2.6,2.6,0,0,1,2.44-1.69h79.49a2.61,2.61,0,1,1,0,5.21h-77.69l-28.74,76.45a75.22,75.22,0,0,1,33-1.3c14.38,2.64,27.65,9,37.38,17.85,12.3,11.22,18.8,26.42,18.8,44,0,24.74-9,42.51-27.49,54.36-13.36,8.55-28.12,10.47-38.67,10.47" transform="translate(-158.11 -368.22)"/><path class="cls-3" d="M1668.48,631.17a125.39,125.39,0,0,1-57.39-14.78,2.61,2.61,0,0,1,2.62-4.51c.37.21,37.59,21.38,76.78,11.41,31.83-8.1,66.18-41.23,66.18-80.65,0-36.85-13.91-63.18-41.35-78.27a100.68,100.68,0,0,0-41.84-11.79,2.59,2.59,0,0,1-2.41-3.49L1682,418.94a2.63,2.63,0,0,1,2.46-1.72h53.1a2.61,2.61,0,0,1,0,5.21h-51.27l-9.09,25.14a105.67,105.67,0,0,1,40.49,12.13,80.89,80.89,0,0,1,30.45,28.48c9.15,14.77,13.79,33.09,13.79,54.46,0,25.36-12.47,44.51-22.93,56.12-13.08,14.5-30.28,25.28-47.19,29.59a94.37,94.37,0,0,1-23.29,2.82" transform="translate(-158.11 -368.22)"/></g></svg>