<svg width="58" height="48" viewBox="0 0 58 48" fill="none" xmlns="http://www.w3.org/2000/svg">
<path d="M47.4887 7.41043C46.9301 6.85186 46.3716 6.29328 45.813 5.73471C44.1373 3.94727 42.3498 2.15983 40.1155 1.04268C37.5461 -0.297899 34.7532 0.0372357 31.9603 0.0372357C27.7152 0.0372357 17.1022 0.0372357 10.8462 0.0372357L15.0914 5.73471C22.7997 5.73471 34.8649 5.73471 40.4507 5.73471C42.7967 5.73471 44.8076 6.18157 46.7067 7.41043C47.0419 7.52215 47.377 7.52215 47.4887 7.41043Z" fill="#2A47E6"/>
<path d="M52.1822 16.5711C51.6237 16.0125 51.0651 15.4539 50.5065 14.8953C48.8308 13.1079 47.0434 11.3205 44.8091 10.2033C42.2396 8.86273 39.4467 9.19788 36.6539 9.19788C32.9673 9.19788 24.1418 9.19788 17.8857 9.19788L22.1309 14.8953C29.7275 14.8953 40.117 14.8953 45.2559 14.8953C47.6019 14.8953 49.6128 15.3422 51.512 16.5711C51.7354 16.6828 51.9588 16.6828 52.1822 16.5711Z" fill="#2A47E6"/>
<path d="M57.4307 25.5081C56.8721 24.9495 56.3136 24.3909 55.755 23.8324C54.0793 22.0449 52.2918 20.2575 50.0575 19.1403C47.4881 17.7997 44.6952 18.1349 41.9023 18.1349C38.4392 18.1349 30.8426 18.1349 24.6982 18.1349L28.9434 23.8324C36.3166 23.8324 45.7007 23.8324 50.3927 23.8324C52.7387 23.8324 54.7496 24.2792 56.6487 25.5081C56.9839 25.6198 57.2073 25.7315 57.4307 25.5081Z" fill="#2A47E6"/>
<path d="M10.4014 40.5896C10.9599 41.1482 11.5185 41.7068 12.0771 42.2654C13.7528 44.0528 15.5402 45.8402 17.7745 46.9574C20.344 48.298 23.1369 47.9628 25.9297 47.9628H47.0439L42.7987 42.2654C35.0904 42.2654 23.0252 42.2654 17.4394 42.2654C15.0934 42.2654 13.0825 41.8185 11.1834 40.5896C10.8482 40.4779 10.6248 40.4779 10.4014 40.5896Z" fill="#2A47E6"/>
<path d="M5.70605 31.429C6.26463 31.9876 6.8232 32.5462 7.38178 33.1047C9.0575 34.8922 10.8449 36.6796 13.0792 37.7968C15.6487 39.1373 18.4416 38.8022 21.2344 38.8022H40.0026L35.7574 33.1047C28.1608 33.1047 17.7713 33.1047 12.6324 33.1047C10.2864 33.1047 8.27549 32.6579 6.37633 31.429C6.1529 31.3173 5.92948 31.3173 5.70605 31.429Z" fill="#2A47E6"/>
<path d="M0.569336 22.3802C1.12791 22.9387 1.68649 23.4973 2.24506 24.0559C3.92079 25.8433 5.70823 27.6308 7.94253 28.7479C10.512 30.0885 13.3048 29.7534 16.0977 29.7534H33.3018L29.0567 24.0559C21.6835 24.0559 12.2994 24.0559 7.60738 24.0559C5.26137 24.0559 3.25049 23.609 1.35134 22.3802C1.01619 22.2685 0.792766 22.2685 0.569336 22.3802Z" fill="#2A47E6"/>
</svg>
