<?xml version="1.0" standalone="no"?>
<!DOCTYPE svg PUBLIC "-//W3C//DTD SVG 20010904//EN"
 "http://www.w3.org/TR/2001/REC-SVG-20010904/DTD/svg10.dtd">
<svg version="1.0" xmlns="http://www.w3.org/2000/svg"
 width="24" height="24" viewBox="0 0 400.000000 400.000000"
 preserveAspectRatio="xMidYMid meet" fill="currentColor">

<g transform="translate(0.000000,400.000000) scale(0.100000,-0.100000)"
fill="" stroke="none">
<path d="M3315 3993 c-33 -1 -79 -5 -102 -8 l-42 -6 2 -242 c2 -214 0 -242
-14 -245 -9 -1 -47 21 -85 50 -38 30 -74 57 -80 61 -6 3 -53 -25 -104 -63 -76
-57 -96 -68 -111 -59 -21 11 -22 50 -10 332 l6 147 -60 -5 c-33 -3 -530 -35
-1105 -70 -800 -50 -1055 -69 -1087 -81 -50 -18 -98 -70 -114 -122 -9 -30 2
-384 50 -1678 33 -901 63 -1661 66 -1688 4 -27 12 -61 20 -76 21 -40 80 -88
122 -99 35 -8 2469 -121 2693 -124 102 -2 134 8 176 55 58 63 54 -82 54 1933
0 1823 0 1846 -20 1885 -27 53 -76 88 -140 100 -29 5 -53 9 -54 8 0 -1 -28 -3
-61 -5z m-1130 -678 c112 -7 196 -30 301 -81 217 -103 336 -287 374 -575 16
-127 14 -146 -18 -163 -87 -45 -496 -62 -555 -23 -25 16 -27 23 -27 85 0 119
-35 194 -107 231 -38 19 -134 13 -183 -11 -55 -29 -80 -74 -80 -146 0 -134 71
-202 385 -372 280 -151 396 -240 498 -378 158 -216 170 -559 26 -787 -150
-238 -494 -367 -872 -326 -372 41 -589 197 -675 486 -19 63 -25 112 -29 232
l-6 153 39 16 c77 32 452 34 549 2 l40 -13 7 -90 c18 -218 62 -275 210 -275
85 0 127 20 155 72 25 48 24 151 -4 204 -43 82 -168 176 -418 314 -196 109
-350 232 -430 345 -61 86 -83 133 -106 232 -29 120 -23 282 15 398 91 281 332
448 686 474 52 4 106 6 120 5 14 -2 61 -6 105 -9z"/>
</g>
</svg>
